<svg version="1.2" baseProfile="tiny-ps" xmlns="http://www.w3.org/2000/svg" viewBox="0 0 40 40" width="40" height="40">
	<title>logo-svg</title>
	<defs>
		<clipPath clipPathUnits="userSpaceOnUse" id="cp1">
			<path d="M6.86 6.86L34.29 6.86L34.29 34.29L6.86 34.29L6.86 6.86Z" />
		</clipPath>
	</defs>
	<style>
		tspan { white-space:pre }
		.shp0 { fill: #33cc95 } 
		.shp1 { fill: none;stroke: #ffffff;stroke-linecap:round;stroke-linejoin:round;stroke-width: 2 } 
	</style>
	<path id="Layer" class="shp0" d="M34.14 5.86C30.36 2.08 25.34 0 20 0C14.66 0 9.64 2.08 5.86 5.86C2.08 9.64 0 14.66 0 20C0 25.34 2.08 30.36 5.86 34.14C9.64 37.92 14.66 40 20 40C25.34 40 30.36 37.92 34.14 34.14C37.92 30.36 40 25.34 40 20C40 14.66 37.92 9.64 34.14 5.86Z" />
	<g id="Clip-Path" clip-path="url(#cp1)">
		<g id="Layer">
			<path id="Layer" class="shp1" d="M20.57 8L20.57 33.14" />
			<path id="Layer" class="shp1" d="M26.29 12.57L17.71 12.57C16.65 12.57 15.64 12.99 14.89 13.74C14.14 14.49 13.71 15.51 13.71 16.57C13.71 17.63 14.14 18.65 14.89 19.4C15.64 20.15 16.65 20.57 17.71 20.57L23.43 20.57C24.49 20.57 25.51 20.99 26.26 21.74C27.01 22.49 27.43 23.51 27.43 24.57C27.43 25.63 27.01 26.65 26.26 27.4C25.51 28.15 24.49 28.57 23.43 28.57L13.71 28.57" />
		</g>
	</g>
</svg>